<svg xmlns="http://www.w3.org/2000/svg" xmlns:xlink="http://www.w3.org/1999/xlink" width="500" zoomAndPan="magnify" viewBox="0 0 375 374.999991" height="500" preserveAspectRatio="xMidYMid meet" version="1.2"><defs><clipPath id="280806409d"><path d="M 89 145.695312 L 167.777344 145.695312 L 167.777344 217.695312 L 89 217.695312 Z M 89 145.695312 "/></clipPath><clipPath id="9d91e357f3"><path d="M 152 193 L 167.777344 193 L 167.777344 209 L 152 209 Z M 152 193 "/></clipPath></defs><g id="a06b8ec8a4"><g clip-rule="nonzero" clip-path="url(#280806409d)"><path style=" stroke:none;fill-rule:nonzero;fill:#000000;fill-opacity:1;" d="M 96.644531 217.679688 C 95.683594 217.679688 94.691406 217.492188 93.769531 217.085938 C 90.007812 215.496094 88.277344 211.132812 89.863281 207.398438 L 109.765625 160.394531 C 110.097656 159.65625 110.5 158.953125 111.054688 158.359375 L 111.238281 158.140625 C 112.898438 156.253906 115.402344 155.367188 117.871094 155.773438 C 120.34375 156.179688 122.441406 157.804688 123.476562 160.097656 L 133.207031 182.289062 L 153.109375 149.484375 C 154.289062 147.527344 156.316406 146.230469 158.597656 145.972656 C 160.882812 145.714844 163.132812 146.5625 164.71875 148.191406 L 165.195312 148.707031 C 166.488281 150.078125 167.222656 151.851562 167.261719 153.738281 L 167.628906 180.476562 C 167.703125 184.542969 164.421875 187.910156 160.367188 187.984375 C 156.316406 188.058594 152.960938 184.765625 152.886719 180.699219 L 152.851562 178.292969 L 138.476562 202 C 137.039062 204.367188 134.421875 205.695312 131.695312 205.511719 C 128.964844 205.328125 126.535156 203.625 125.429688 201.109375 L 116.804688 181.511719 L 103.386719 213.167969 C 102.207031 215.976562 99.480469 217.679688 96.644531 217.679688 Z M 96.644531 217.679688 "/></g><g clip-rule="nonzero" clip-path="url(#9d91e357f3)"><path style=" stroke:none;fill-rule:nonzero;fill:#000000;fill-opacity:1;" d="M 167.777344 200.816406 C 167.777344 201.324219 167.726562 201.832031 167.628906 202.332031 C 167.527344 202.832031 167.382812 203.316406 167.1875 203.789062 C 166.992188 204.257812 166.753906 204.707031 166.472656 205.128906 C 166.191406 205.554688 165.871094 205.945312 165.511719 206.308594 C 165.152344 206.667969 164.757812 206.988281 164.335938 207.273438 C 163.914062 207.554688 163.46875 207.796875 163 207.988281 C 162.53125 208.183594 162.046875 208.332031 161.546875 208.433594 C 161.046875 208.53125 160.546875 208.582031 160.035156 208.582031 C 159.527344 208.582031 159.027344 208.53125 158.527344 208.433594 C 158.027344 208.332031 157.542969 208.183594 157.074219 207.988281 C 156.605469 207.796875 156.160156 207.554688 155.738281 207.273438 C 155.3125 206.988281 154.921875 206.667969 154.5625 206.308594 C 154.203125 205.945312 153.882812 205.554688 153.601562 205.128906 C 153.320312 204.707031 153.082031 204.257812 152.886719 203.789062 C 152.691406 203.316406 152.546875 202.832031 152.445312 202.332031 C 152.347656 201.832031 152.296875 201.324219 152.296875 200.816406 C 152.296875 200.304688 152.347656 199.800781 152.445312 199.300781 C 152.546875 198.800781 152.691406 198.316406 152.886719 197.84375 C 153.082031 197.371094 153.320312 196.925781 153.601562 196.5 C 153.882812 196.078125 154.203125 195.683594 154.5625 195.324219 C 154.921875 194.964844 155.3125 194.640625 155.738281 194.359375 C 156.160156 194.074219 156.605469 193.835938 157.074219 193.640625 C 157.542969 193.445312 158.027344 193.296875 158.527344 193.199219 C 159.027344 193.097656 159.527344 193.050781 160.035156 193.050781 C 160.546875 193.050781 161.046875 193.097656 161.546875 193.199219 C 162.046875 193.296875 162.53125 193.445312 163 193.640625 C 163.46875 193.835938 163.914062 194.074219 164.335938 194.359375 C 164.757812 194.640625 165.152344 194.964844 165.511719 195.324219 C 165.871094 195.683594 166.191406 196.078125 166.472656 196.5 C 166.753906 196.925781 166.992188 197.371094 167.1875 197.84375 C 167.382812 198.316406 167.527344 198.800781 167.628906 199.300781 C 167.726562 199.800781 167.777344 200.304688 167.777344 200.816406 Z M 167.777344 200.816406 "/></g><g style="fill:#000000;fill-opacity:1;"><g transform="translate(182.416385, 181.005839)"><path style="stroke:none" d="M 12.703125 -16.625 L 16.359375 -16.625 L 16.359375 1.21875 L 12.703125 1.21875 L 12.703125 -11.96875 L 8.828125 -8.5625 L 5 -11.9375 L 5 1.21875 L 0.875 1.21875 L 0.875 -16.640625 L 5 -16.640625 L 8.875 -12.3125 Z M 12.703125 -16.625 "/></g></g><g style="fill:#000000;fill-opacity:1;"><g transform="translate(199.766241, 181.005839)"><path style="stroke:none" d="M 4.34375 1.21875 L 0.390625 1.21875 L 6.765625 -16.640625 L 10.21875 -16.640625 L 16.546875 1.21875 L 13.28125 1.21875 L 12.1875 -2.46875 L 5.5625 -2.46875 Z M 6.546875 -4.578125 L 11.125 -4.578125 L 8.90625 -12.15625 L 8.84375 -12.15625 Z M 6.546875 -4.578125 "/></g></g><g style="fill:#000000;fill-opacity:1;"><g transform="translate(216.920061, 181.005839)"><path style="stroke:none" d="M 14.703125 1.21875 L 10.515625 1.21875 C 10.628906 1.007812 10.722656 0.796875 10.796875 0.578125 C 10.867188 0.367188 10.914062 0.140625 10.9375 -0.109375 C 10.96875 -0.359375 10.984375 -0.644531 10.984375 -0.96875 C 10.992188 -1.300781 11 -1.695312 11 -2.15625 C 11 -2.757812 10.960938 -3.285156 10.890625 -3.734375 C 10.816406 -4.179688 10.671875 -4.554688 10.453125 -4.859375 C 10.234375 -5.160156 9.921875 -5.382812 9.515625 -5.53125 C 9.109375 -5.6875 8.5625 -5.765625 7.875 -5.765625 L 5.09375 -5.765625 L 5.09375 1.21875 L 0.859375 1.21875 L 0.859375 -16.625 L 9.359375 -16.625 C 10.535156 -16.625 11.484375 -16.429688 12.203125 -16.046875 C 12.921875 -15.660156 13.476562 -15.203125 13.875 -14.671875 C 14.269531 -14.140625 14.523438 -13.585938 14.640625 -13.015625 C 14.765625 -12.441406 14.828125 -11.960938 14.828125 -11.578125 C 14.828125 -10.585938 14.609375 -9.707031 14.171875 -8.9375 C 13.742188 -8.175781 13.085938 -7.648438 12.203125 -7.359375 C 12.566406 -7.191406 12.90625 -7.015625 13.21875 -6.828125 C 13.53125 -6.648438 13.796875 -6.398438 14.015625 -6.078125 C 14.234375 -5.765625 14.398438 -5.347656 14.515625 -4.828125 C 14.640625 -4.316406 14.703125 -3.644531 14.703125 -2.8125 Z M 8.390625 -8.78125 C 9.347656 -8.78125 10.0625 -8.960938 10.53125 -9.328125 C 11.007812 -9.691406 11.25 -10.316406 11.25 -11.203125 C 11.25 -11.429688 11.21875 -11.679688 11.15625 -11.953125 C 11.09375 -12.222656 10.96875 -12.472656 10.78125 -12.703125 C 10.59375 -12.941406 10.328125 -13.140625 9.984375 -13.296875 C 9.640625 -13.453125 9.195312 -13.53125 8.65625 -13.53125 L 5.09375 -13.53125 L 5.09375 -8.78125 Z M 8.390625 -8.78125 "/></g></g><g style="fill:#000000;fill-opacity:1;"><g transform="translate(232.677071, 181.005839)"><path style="stroke:none" d="M 13.21875 -13.796875 L 5.09375 -13.796875 L 5.09375 -9.4375 L 11.796875 -9.4375 L 11.796875 -7.015625 L 5.09375 -7.015625 L 5.09375 -1.46875 L 13.21875 -1.46875 L 13.21875 1.203125 L 1.046875 1.203125 L 1.046875 -16.625 L 13.21875 -16.625 Z M 13.21875 -13.796875 "/></g></g><g style="fill:#000000;fill-opacity:1;"><g transform="translate(246.669682, 181.005839)"><path style="stroke:none" d="M 12.703125 -16.625 L 16.359375 -16.625 L 16.359375 1.21875 L 12.703125 1.21875 L 12.703125 -11.96875 L 8.828125 -8.5625 L 5 -11.9375 L 5 1.21875 L 0.875 1.21875 L 0.875 -16.640625 L 5 -16.640625 L 8.875 -12.3125 Z M 12.703125 -16.625 "/></g></g><g style="fill:#000000;fill-opacity:1;"><g transform="translate(264.019539, 181.005839)"><path style="stroke:none" d="M 9.859375 1.21875 L 6.234375 1.21875 C 5.691406 1.21875 5.101562 1.132812 4.46875 0.96875 C 3.84375 0.8125 3.257812 0.539062 2.71875 0.15625 C 2.175781 -0.226562 1.726562 -0.726562 1.375 -1.34375 C 1.03125 -1.96875 0.859375 -2.738281 0.859375 -3.65625 L 0.859375 -11.328125 C 0.859375 -12.128906 1.015625 -12.851562 1.328125 -13.5 C 1.640625 -14.15625 2.0625 -14.71875 2.59375 -15.1875 C 3.125 -15.65625 3.738281 -16.015625 4.4375 -16.265625 C 5.132812 -16.515625 5.878906 -16.640625 6.671875 -16.640625 L 9.171875 -16.640625 C 9.972656 -16.640625 10.710938 -16.515625 11.390625 -16.265625 C 12.078125 -16.015625 12.671875 -15.65625 13.171875 -15.1875 C 13.671875 -14.71875 14.0625 -14.160156 14.34375 -13.515625 C 14.625 -12.867188 14.765625 -12.144531 14.765625 -11.34375 L 14.765625 -3.578125 C 14.765625 -2.859375 14.609375 -2.203125 14.296875 -1.609375 C 13.992188 -1.015625 13.601562 -0.503906 13.125 -0.078125 C 12.644531 0.335938 12.113281 0.65625 11.53125 0.875 C 10.957031 1.101562 10.398438 1.21875 9.859375 1.21875 Z M 8.53125 -1.71875 C 9.3125 -1.71875 9.9375 -1.925781 10.40625 -2.34375 C 10.882812 -2.757812 11.125 -3.359375 11.125 -4.140625 L 11.125 -11.078125 C 11.125 -11.390625 11.070312 -11.679688 10.96875 -11.953125 C 10.863281 -12.234375 10.703125 -12.476562 10.484375 -12.6875 C 10.273438 -12.90625 10.007812 -13.078125 9.6875 -13.203125 C 9.375 -13.328125 9 -13.390625 8.5625 -13.390625 L 7.1875 -13.390625 C 6.738281 -13.390625 6.347656 -13.320312 6.015625 -13.1875 C 5.679688 -13.0625 5.398438 -12.890625 5.171875 -12.671875 C 4.941406 -12.460938 4.769531 -12.21875 4.65625 -11.9375 C 4.539062 -11.65625 4.484375 -11.363281 4.484375 -11.0625 L 4.484375 -4.140625 C 4.484375 -3.472656 4.671875 -2.898438 5.046875 -2.421875 C 5.421875 -1.953125 6.066406 -1.71875 6.984375 -1.71875 Z M 8.53125 -1.71875 "/></g></g><g style="fill:#000000;fill-opacity:1;"><g transform="translate(279.825558, 181.005839)"><path style="stroke:none" d="M 0.25 -16.640625 L 4.640625 -16.640625 C 5.222656 -14.328125 5.742188 -12.238281 6.203125 -10.375 C 6.398438 -9.582031 6.59375 -8.800781 6.78125 -8.03125 C 6.96875 -7.269531 7.132812 -6.582031 7.28125 -5.96875 C 7.425781 -5.351562 7.546875 -4.84375 7.640625 -4.4375 C 7.742188 -4.039062 7.796875 -3.820312 7.796875 -3.78125 C 7.816406 -3.820312 7.898438 -4.039062 8.046875 -4.4375 C 8.203125 -4.84375 8.394531 -5.351562 8.625 -5.96875 C 8.851562 -6.582031 9.109375 -7.269531 9.390625 -8.03125 C 9.671875 -8.800781 9.957031 -9.582031 10.25 -10.375 C 10.914062 -12.238281 11.679688 -14.328125 12.546875 -16.640625 L 17.328125 -16.640625 L 9.875 1.21875 L 5.765625 1.21875 Z M 0.25 -16.640625 "/></g></g><g style="fill:#000000;fill-opacity:1;"><g transform="translate(182.416385, 200.320064)"><path style="stroke:none" d="M 1.015625 0 L 1.015625 -8.703125 L 3.46875 -8.703125 C 4.226562 -8.703125 4.898438 -8.535156 5.484375 -8.203125 C 6.066406 -7.867188 6.515625 -7.390625 6.828125 -6.765625 C 7.140625 -6.148438 7.300781 -5.441406 7.3125 -4.640625 L 7.3125 -4.09375 C 7.3125 -3.269531 7.148438 -2.546875 6.828125 -1.921875 C 6.515625 -1.304688 6.0625 -0.832031 5.46875 -0.5 C 4.882812 -0.175781 4.203125 -0.0078125 3.421875 0 Z M 2.15625 -7.765625 L 2.15625 -0.9375 L 3.375 -0.9375 C 4.257812 -0.9375 4.945312 -1.210938 5.4375 -1.765625 C 5.925781 -2.316406 6.171875 -3.097656 6.171875 -4.109375 L 6.171875 -4.625 C 6.171875 -5.613281 5.9375 -6.378906 5.46875 -6.921875 C 5.007812 -7.472656 4.351562 -7.753906 3.5 -7.765625 Z M 2.15625 -7.765625 "/></g></g><g style="fill:#000000;fill-opacity:1;"><g transform="translate(194.112761, 200.320064)"><path style="stroke:none" d="M 2.25 0 L 1.09375 0 L 1.09375 -8.703125 L 2.25 -8.703125 Z M 2.25 0 "/></g></g><g style="fill:#000000;fill-opacity:1;"><g transform="translate(201.10922, 200.320064)"><path style="stroke:none" d="M 7.4375 -1.140625 C 7.144531 -0.722656 6.734375 -0.40625 6.203125 -0.1875 C 5.671875 0.0195312 5.054688 0.125 4.359375 0.125 C 3.648438 0.125 3.019531 -0.0390625 2.46875 -0.375 C 1.914062 -0.707031 1.488281 -1.179688 1.1875 -1.796875 C 0.882812 -2.410156 0.734375 -3.125 0.734375 -3.9375 L 0.734375 -4.703125 C 0.734375 -6.003906 1.035156 -7.015625 1.640625 -7.734375 C 2.253906 -8.460938 3.117188 -8.828125 4.234375 -8.828125 C 5.140625 -8.828125 5.867188 -8.59375 6.421875 -8.125 C 6.972656 -7.664062 7.3125 -7.007812 7.4375 -6.15625 L 6.296875 -6.15625 C 6.078125 -7.3125 5.390625 -7.890625 4.234375 -7.890625 C 3.460938 -7.890625 2.878906 -7.617188 2.484375 -7.078125 C 2.085938 -6.535156 1.890625 -5.75 1.890625 -4.71875 L 1.890625 -4.015625 C 1.890625 -3.035156 2.109375 -2.253906 2.546875 -1.671875 C 2.992188 -1.097656 3.597656 -0.8125 4.359375 -0.8125 C 4.796875 -0.8125 5.175781 -0.859375 5.5 -0.953125 C 5.820312 -1.054688 6.085938 -1.222656 6.296875 -1.453125 L 6.296875 -3.40625 L 4.28125 -3.40625 L 4.28125 -4.34375 L 7.4375 -4.34375 Z M 7.4375 -1.140625 "/></g></g><g style="fill:#000000;fill-opacity:1;"><g transform="translate(213.116532, 200.320064)"><path style="stroke:none" d="M 2.25 0 L 1.09375 0 L 1.09375 -8.703125 L 2.25 -8.703125 Z M 2.25 0 "/></g></g><g style="fill:#000000;fill-opacity:1;"><g transform="translate(220.112992, 200.320064)"><path style="stroke:none" d="M 7.03125 -7.765625 L 4.234375 -7.765625 L 4.234375 0 L 3.09375 0 L 3.09375 -7.765625 L 0.296875 -7.765625 L 0.296875 -8.703125 L 7.03125 -8.703125 Z M 7.03125 -7.765625 "/></g></g><g style="fill:#000000;fill-opacity:1;"><g transform="translate(231.085838, 200.320064)"><path style="stroke:none" d="M 5.8125 -2.265625 L 2.171875 -2.265625 L 1.359375 0 L 0.171875 0 L 3.5 -8.703125 L 4.5 -8.703125 L 7.828125 0 L 6.65625 0 Z M 2.515625 -3.21875 L 5.484375 -3.21875 L 4 -7.296875 Z M 2.515625 -3.21875 "/></g></g><g style="fill:#000000;fill-opacity:1;"><g transform="translate(242.740351, 200.320064)"><path style="stroke:none" d="M 2.171875 -0.9375 L 6.296875 -0.9375 L 6.296875 0 L 1.015625 0 L 1.015625 -8.703125 L 2.171875 -8.703125 Z M 2.171875 -0.9375 "/></g></g></g></svg>